<?xml version="1.0" encoding="UTF-8" standalone="no"?>
<!-- Created with Inkscape (http://www.inkscape.org/) -->

<svg
   xmlns:dc="http://purl.org/dc/elements/1.1/"
   xmlns:cc="http://creativecommons.org/ns#"
   xmlns:rdf="http://www.w3.org/1999/02/22-rdf-syntax-ns#"
   xmlns:svg="http://www.w3.org/2000/svg"
   xmlns="http://www.w3.org/2000/svg"
   xmlns:xlink="http://www.w3.org/1999/xlink"
   xmlns:sodipodi="http://sodipodi.sourceforge.net/DTD/sodipodi-0.dtd"
   xmlns:inkscape="http://www.inkscape.org/namespaces/inkscape"
   width="120.5288mm"
   height="30.806009mm"
   viewBox="0 0 120.5288 30.806009"
   version="1.1"
   id="svg1595"
   inkscape:version="0.92.4 (5da689c313, 2019-01-14)"
   sodipodi:docname="logo.svg">
  <defs
     id="defs1589">
    <linearGradient
       inkscape:collect="always"
       xlink:href="#linearGradient1585"
       id="linearGradient1587"
       x1="1011.3369"
       y1="504.72626"
       x2="1031.9479"
       y2="565.41425"
       gradientUnits="userSpaceOnUse"
       gradientTransform="matrix(0.66307863,0,0,0.66307863,-619.59701,-222.74603)" />
    <linearGradient
       inkscape:collect="always"
       id="linearGradient1585">
      <stop
         style="stop-color:#294997;stop-opacity:1"
         offset="0"
         id="stop1581" />
      <stop
         style="stop-color:#0e8cd4;stop-opacity:1"
         offset="1"
         id="stop1583" />
    </linearGradient>
  </defs>
  <sodipodi:namedview
     id="base"
     pagecolor="#ffffff"
     bordercolor="#666666"
     borderopacity="1.0"
     inkscape:pageopacity="0.0"
     inkscape:pageshadow="2"
     inkscape:zoom="0.35"
     inkscape:cx="-300.80046"
     inkscape:cy="-22.124873"
     inkscape:document-units="mm"
     inkscape:current-layer="layer1"
     showgrid="false"
     inkscape:window-width="1366"
     inkscape:window-height="705"
     inkscape:window-x="-8"
     inkscape:window-y="-8"
     inkscape:window-maximized="1" />
  <metadata
     id="metadata1592">
    <rdf:RDF>
      <cc:Work
         rdf:about="">
        <dc:format>image/svg+xml</dc:format>
        <dc:type
           rdf:resource="http://purl.org/dc/dcmitype/StillImage" />
        <dc:title></dc:title>
      </cc:Work>
    </rdf:RDF>
  </metadata>
  <g
     inkscape:label="Layer 1"
     inkscape:groupmode="layer"
     id="layer1"
     transform="translate(-50.104646,-112.17345)">
    <path
       style="font-style:normal;font-variant:normal;font-weight:bold;font-stretch:normal;font-size:6.83118916px;line-height:1.25;font-family:Roboto;-inkscape-font-specification:'Roboto, Bold';font-variant-ligatures:normal;font-variant-caps:normal;font-variant-numeric:normal;font-feature-settings:normal;text-align:start;letter-spacing:0px;word-spacing:0px;writing-mode:lr-tb;text-anchor:start;fill:url(#linearGradient1587);fill-opacity:1;stroke:none;stroke-width:0.31685641"
       d="m 70.582376,112.17345 v 10.79186 l 10.79187,-10.79186 z m -0.71878,0.67732 -10.79187,10.79186 h 10.79187 z m 10.85016,1.15909 -3.78293,3.78421 5.41728,-3.05378 z m -27.3339,1.3689 -0.1722,8.26387 h 4.79307 l 2.96701,-2.96572 -5.29813,-5.29815 z m -0.64882,0.25254 -2.62639,2.6277 h 2.62639 z m 51.005274,1.66158 c -0.75087,0 -1.41892,0.18086 -2.00475,0.54393 -0.58172,0.35893 -1.03288,0.87749 -1.35467,1.55409 -0.31768,0.67248 -0.476622,1.4519 -0.476622,2.33891 v 0.4455 c 0.004,0.86637 0.166432,1.63428 0.488292,2.30265 0.32179,0.66422 0.77527,1.17572 1.3611,1.53466 0.58583,0.35893 1.25289,0.53746 1.99958,0.53746 0.75498,0 1.4231,-0.18086 2.00482,-0.54394 0.58583,-0.36305 1.03586,-0.87928 1.34943,-1.54761 0.31357,-0.66836 0.47012,-1.44543 0.47012,-2.33243 v -0.40277 c 0,-0.88289 -0.16126,-1.65995 -0.48305,-2.33243 -0.31768,-0.6766 -0.76884,-1.19516 -1.35467,-1.55409 -0.58172,-0.36307 -1.24871,-0.54393 -1.99958,-0.54393 z m 44.84195,0 c -0.76731,0 -1.43775,0.17511 -2.01125,0.5258 -0.56932,0.34655 -1.00655,0.84996 -1.3119,1.51006 -0.30117,0.65599 -0.45195,1.43305 -0.45195,2.33243 v 0.61257 c 0.008,0.87462 0.17187,1.63678 0.48955,2.28451 0.32179,0.64772 0.77527,1.14302 1.3611,1.48545 0.58994,0.33832 1.27424,0.50638 2.05402,0.50638 0.74258,0 1.42005,-0.10899 2.03068,-0.32765 0.61056,-0.22278 1.0826,-0.53356 1.4168,-0.93376 v -3.59642 h -3.54595 v 1.3676 h 1.6888 v 1.55409 c -0.29706,0.29705 -0.79351,0.44551 -1.49061,0.44551 -0.69318,0 -1.21979,-0.24124 -1.57872,-0.72395 -0.35892,-0.48268 -0.53749,-1.19728 -0.53749,-2.14206 v -0.57501 c 0.004,-0.93652 0.17114,-1.64171 0.50122,-2.11615 0.33001,-0.47446 0.81022,-0.7123 1.4414,-0.7123 0.49512,0 0.88249,0.11946 1.16297,0.35874 0.28466,0.23929 0.4692,0.61748 0.55175,1.13319 h 1.80663 c -0.1114,-0.97364 -0.46873,-1.71489 -1.07107,-2.22235 -0.60235,-0.51158 -1.43743,-0.76668 -2.50598,-0.76668 z m -59.520324,0.12303 v 9.01114 h 1.85582 v -2.46323 l -0.1852,-4.24527 2.42568,6.7085 h 1.27563 l 2.43217,-6.71497 -0.18646,4.25174 v 2.46323 h 1.86226 v -9.01114 h -2.43728 l -2.30267,6.53496 -2.31428,-6.53496 z m 19.790044,0 v 6.00268 c 0.0123,0.97364 0.32783,1.73918 0.94668,2.29616 0.61885,0.55696 1.45526,0.83533 2.5073,0.83533 1.06855,0 1.90933,-0.28646 2.52407,-0.85993 0.61886,-0.57347 0.92858,-1.35288 0.92858,-2.33891 v -5.93533 h -1.86232 v 5.9975 c -0.0165,1.09743 -0.54658,1.64604 -1.59033,1.64604 -0.49923,0 -0.89124,-0.1346 -1.17597,-0.40277 -0.28055,-0.27228 -0.42086,-0.70381 -0.42086,-1.29378 v -5.94699 z m 8.42966,0 v 9.01114 h 5.79802 v -1.49193 h -3.9422 v -7.51921 z m 6.8561,0 v 9.01114 h 2.79089 c 0.78801,-0.004 1.49551,-0.1863 2.12265,-0.54523 0.62707,-0.35893 1.11192,-0.86338 1.45433,-1.51524 0.34659,-0.65184 0.52065,-1.39649 0.52065,-2.234 v -0.41573 c 0,-0.8375 -0.17644,-1.58319 -0.52708,-2.23918 -0.3507,-0.66008 -0.83893,-1.16819 -1.46607,-1.523 -0.62296,-0.35894 -1.33046,-0.53876 -2.12258,-0.53876 z m 8.36102,0 v 9.01114 h 1.85582 v -9.01114 z m 3.57055,0 v 9.01114 h 1.85708 v -5.92886 l 3.61331,5.92886 h 1.85709 v -9.01114 h -1.85065 v 5.9418 l -3.61975,-5.9418 z m -32.329,1.41163 c 0.62707,0 1.11092,0.24466 1.44916,0.73561 0.33837,0.49095 0.50639,1.20893 0.50639,2.1537 v 0.44033 c -0.004,0.93652 -0.1722,1.64981 -0.50639,2.14076 -0.33413,0.48683 -0.81327,0.73043 -1.43623,0.73043 -0.63536,-10e-6 -1.12253,-0.25405 -1.46083,-0.76151 -0.3383,-0.50746 -0.50765,-1.22076 -0.50765,-2.14076 v -0.44032 c 0.004,-0.93652 0.17585,-1.64512 0.51415,-2.12781 0.3383,-0.48683 0.81844,-0.73043 1.4414,-0.73043 z m 22.25458,0.0933 h 0.91564 c 0.73018,0 1.28458,0.23655 1.66413,0.71099 0.37955,0.47032 0.56985,1.16399 0.56985,2.0799 v 0.47658 c -0.008,0.88291 -0.20429,1.56143 -0.58795,2.03586 -0.38373,0.47446 -0.93806,0.711 -1.6642,0.711 h -0.89747 z m -72.087794,5.41859 11.47955,11.47826 3.82563,-11.47826 z m 15.9605,2.0268 -5.23341,13.60476 5.23341,3.00847 z m 38.198244,2.23659 c -0.75087,0 -1.41084,0.17748 -1.98015,0.53228 -0.56521,0.35069 -1.00013,0.85644 -1.30541,1.51653 -0.30535,0.6601 -0.45719,1.42331 -0.45719,2.2897 v 0.5504 c 0,1.35732 0.32935,2.42685 0.98945,3.20661 0.6642,0.77561 1.57355,1.16298 2.7287,1.16298 1.05615,0 1.90641,-0.27836 2.55,-0.83533 0.64769,-0.55695 1.00735,-1.32017 1.0775,-2.28969 h -1.85715 c -0.0412,0.5487 -0.20356,0.95462 -0.48822,1.21867 -0.28055,0.25992 -0.70864,0.38981 -1.28213,0.38981 -0.63537,0 -1.10164,-0.22503 -1.3987,-0.67473 -0.29288,-0.4497 -0.43903,-1.16064 -0.43903,-2.13429 v -0.6812 c 0.008,-0.9324 0.16485,-1.61902 0.47013,-2.06047 0.30946,-0.44557 0.77341,-0.66826 1.3922,-0.66826 0.56938,0 0.99276,0.13225 1.2692,0.39629 0.28048,0.25992 0.44406,0.67969 0.48955,1.26141 h 1.85582 c -0.099,-1.00666 -0.46548,-1.78842 -1.10084,-2.34538 -0.6353,-0.55697 -1.47403,-0.83533 -2.51373,-0.83533 z m 29.90332,0 c -0.75087,0 -1.41083,0.17748 -1.98015,0.53228 -0.56528,0.35069 -1.00019,0.85644 -1.30547,1.51653 -0.30528,0.6601 -0.45846,1.42331 -0.45846,2.2897 v 0.5504 c 0,1.35732 0.33062,2.42685 0.99071,3.20661 0.66427,0.77561 1.57355,1.16298 2.72877,1.16298 1.05615,0 1.90635,-0.27836 2.55,-0.83533 0.64769,-0.55695 1.00602,-1.32017 1.07618,-2.28969 h -1.85583 c -0.0412,0.5487 -0.20489,0.95462 -0.48955,1.21867 -0.28055,0.25992 -0.70737,0.38981 -1.2808,0.38981 -0.63536,0 -1.10164,-0.22503 -1.3987,-0.67473 -0.29288,-0.4497 -0.43902,-1.16064 -0.43902,-2.13429 v -0.6812 c 0.008,-0.9324 0.16484,-1.61902 0.47012,-2.06047 0.30939,-0.44557 0.77335,-0.66826 1.3922,-0.66826 0.56932,0 0.99283,0.13225 1.26913,0.39629 0.28055,0.25992 0.4428,0.67969 0.48829,1.26141 h 1.85715 c -0.0991,-1.00666 -0.46681,-1.78842 -1.10217,-2.34538 -0.63523,-0.55697 -1.47276,-0.83533 -2.5124,-0.83533 z m 29.35807,0 c -0.63947,0 -1.21715,0.10794 -1.73282,0.32248 -0.51157,0.21452 -0.90597,0.5138 -1.18241,0.89748 -0.27226,0.37957 -0.40792,0.81216 -0.40792,1.29897 0,0.93653 0.5115,1.68119 1.53463,2.234 0.37543,0.20218 0.88461,0.40865 1.5282,0.61904 0.64358,0.20629 1.08897,0.40467 1.3365,0.59445 0.24752,0.18565 0.37172,0.45356 0.37172,0.80424 0,0.3218 -0.1242,0.5735 -0.37172,0.75503 -0.24753,0.1774 -0.592,0.26549 -1.03348,0.26549 -1.18817,0 -1.78202,-0.49636 -1.78202,-1.49064 h -1.86232 c 0,0.58173 0.14846,1.09324 0.44552,1.53467 0.30117,0.44146 0.73608,0.78935 1.30547,1.04513 0.56932,0.25166 1.20024,0.37816 1.89335,0.37816 0.9984,0 1.79297,-0.22036 2.38297,-0.66179 0.58995,-0.44557 0.88455,-1.05925 0.88455,-1.839 0,-0.70135 -0.24123,-1.28709 -0.72395,-1.75742 -0.48272,-0.47033 -1.25169,-0.86345 -2.30784,-1.18111 -0.5735,-0.17329 -1.00848,-0.35887 -1.30541,-0.55688 -0.29294,-0.19804 -0.44035,-0.44399 -0.44035,-0.7369 0,-0.31355 0.12652,-0.56525 0.37816,-0.75503 0.25164,-0.1939 0.60426,-0.29139 1.05807,-0.29139 0.47032,0 0.83575,0.11605 1.09561,0.34708 0.25992,0.22692 0.38982,0.54709 0.38982,0.95965 h 1.85589 c 0,-0.54046 -0.13905,-1.02425 -0.4196,-1.44919 -0.27643,-0.42495 -0.66745,-0.75193 -1.17079,-0.98296 -0.50328,-0.23516 -1.07625,-0.35356 -1.71983,-0.35356 z m -78.265294,0.12433 v 1.50358 h 2.7222 v 7.50626 h 1.85715 v -7.50626 h 2.7598 v -1.50358 z m 8.40372,0 v 9.00984 h 6.040254 v -1.49063 h -4.183102 v -2.41402 h 3.564052 v -1.45437 h -3.564052 v -2.14724 h 4.170112 v -1.50358 z m 15.421754,0 v 9.00984 h 1.85583 v -3.86062 h 3.62107 v 3.86062 h 1.85582 v -9.00984 h -1.85582 v 3.65082 h -3.62107 v -3.65082 z m 8.96065,0 v 9.00984 h 1.85715 v -5.92756 l 3.61325,5.92756 h 1.85715 v -9.00984 h -1.85065 v 5.94051 l -3.61975,-5.94051 z m 9.07847,0 v 9.00984 h 1.85715 v -9.00984 z m 11.98077,0 v 9.00984 h 1.85709 v -9.00984 z m 6.28758,0 -3.35425,9.00984 h 1.97498 l 0.61772,-1.85584 h 3.25585 l 0.62423,1.85584 h 1.97498 l -3.37236,-9.00984 z m 5.94695,0 v 9.00984 h 1.85715 v -5.92756 l 3.61325,5.92756 h 1.85715 v -9.00984 h -1.85065 v 5.94051 l -3.61975,-5.94051 z m -5.087,2.27674 1.13313,3.37367 h -2.2534 z"
       id="path1491"
       inkscape:connector-curvature="0" />
  </g>
</svg>
